<svg xmlns="http://www.w3.org/2000/svg" xmlns:xlink="http://www.w3.org/1999/xlink" width="1681" height="150" viewBox="0 0 1681 150">
  <defs>
    <clipPath id="clip-path">
      <rect id="Rechteck_427" data-name="Rechteck 427" width="82.172" height="42.44" transform="translate(0 0)" fill="#fdfbf6"/>
    </clipPath>
    <clipPath id="clip-path-2">
      <rect id="Rechteck_426" data-name="Rechteck 426" width="48.678" height="51.722" fill="none" stroke="#707070" stroke-width="1"/>
    </clipPath>
    <clipPath id="clip-Hintergrund_Kapitelabschluss-Button_br">
      <rect width="1681" height="150"/>
    </clipPath>
  </defs>
  <g id="Hintergrund_Kapitelabschluss-Button_br" data-name="Hintergrund_Kapitelabschluss-Button – br" clip-path="url(#clip-Hintergrund_Kapitelabschluss-Button_br)">
    <rect width="1681" height="150" fill="#fff"/>
    <g id="Logo_original" transform="translate(1418.224 75)" clip-path="url(#clip-path)">
      <g id="logo-bplusr_2_" data-name="logo-bplusr (2)" transform="translate(10.265 2.196)">
        <g id="Gruppe_465" data-name="Gruppe 465" transform="translate(0.232)" clip-path="url(#clip-path-2)">
          <path id="Pfad_942" data-name="Pfad 942" d="M63.39,48.18" transform="translate(-12.962 -9.676)" fill="none" stroke="#00587f" stroke-width="1.15"/>
          <path id="Pfad_943" data-name="Pfad 943" d="M3.13,48.18" transform="translate(-0.86 -9.676)" fill="none" stroke="#00587f" stroke-width="1.15"/>
          <path id="Pfad_944" data-name="Pfad 944" d="M46.778,61.786v.4a.1.1,0,0,0,0,.1.136.136,0,0,0,.1.04h.479v.687a2.284,2.284,0,0,1-.328.12,1.318,1.318,0,0,1-.376.04,1.446,1.446,0,0,1-.535-.088,1.175,1.175,0,0,1-.408-.272,1.3,1.3,0,0,1-.264-.432,1.9,1.9,0,0,1-.09-.584,1.479,1.479,0,0,1,.088-.551,1.151,1.151,0,0,1,.24-.424,1.111,1.111,0,0,1,.39-.272,1.3,1.3,0,0,1,.511-.1,1.735,1.735,0,0,1,.3,0l.24.056a1.063,1.063,0,0,1,.192.088l.176.1a.216.216,0,0,0,.167,0,.184.184,0,0,0,.12-.088L48,60.291a1.679,1.679,0,0,0-.264-.208,1.877,1.877,0,0,0-.312-.152,1.853,1.853,0,0,0-.376-.1,2.476,2.476,0,0,0-.432,0,2.222,2.222,0,0,0-.8.144,1.854,1.854,0,0,0-.623.4,1.758,1.758,0,0,0-.39.613,2.11,2.11,0,0,0-.144.8,2.03,2.03,0,0,0,.146.8,1.742,1.742,0,0,0,.415.613,1.83,1.83,0,0,0,.64.408,2.4,2.4,0,0,0,.847.144,2.533,2.533,0,0,0,.7-.1,2.35,2.35,0,0,0,.613-.312V61.781Zm-3.349-1.9v2.653l-2-2.54-.024-.04H40.85v3.8h.623V61.354a2.309,2.309,0,0,0,0-.319l1.99,2.541a.335.335,0,0,0,.1.088.272.272,0,0,0,.144,0h.335V59.892Zm-5.322,3.2a.751.751,0,0,1-.272-.2.911.911,0,0,1-.176-.3,1.238,1.238,0,0,1-.056-.4v-2.3h-.712v2.278a1.766,1.766,0,0,0,.112.623,1.375,1.375,0,0,0,.312.5,1.311,1.311,0,0,0,.5.328,1.75,1.75,0,0,0,.663.12,1.711,1.711,0,0,0,.655-.12,1.255,1.255,0,0,0,.5-.328,1.511,1.511,0,0,0,.319-.5,1.758,1.758,0,0,0,.1-.623V59.892h-.7v2.278a1.223,1.223,0,0,1-.064.39.935.935,0,0,1-.167.3.8.8,0,0,1-.272.192,1.087,1.087,0,0,1-.735,0m-2.6-.7a1.223,1.223,0,0,1-.24.424,1.143,1.143,0,0,1-.376.264,1.446,1.446,0,0,1-.5.088h-.738V60.451h.735a1.287,1.287,0,0,1,.5.1.943.943,0,0,1,.376.264,1.183,1.183,0,0,1,.24.415,1.8,1.8,0,0,1,.088.568,1.75,1.75,0,0,1-.088.558m.669-1.326a1.766,1.766,0,0,0-.39-.607,1.846,1.846,0,0,0-.607-.39,2.286,2.286,0,0,0-.8-.136H32.944v3.8h1.446a2.11,2.11,0,0,0,.8-.144,1.729,1.729,0,0,0,.607-.39,1.814,1.814,0,0,0,.39-.6,2.237,2.237,0,0,0,0-1.534m-5.267,2.085v-3.2h-.7v3.8h2.23v-.584Zm-1.6-3.2h-.7v3.8h.7Zm-4.172,0v3.8h1.439a1.862,1.862,0,0,0,.583-.088,1.35,1.35,0,0,0,.439-.232.871.871,0,0,0,.264-.352,1.047,1.047,0,0,0,.1-.446c0-.446-.264-.735-.8-.847a1.079,1.079,0,0,0,.3-.152.959.959,0,0,0,.208-.192.679.679,0,0,0,.12-.223.725.725,0,0,0,0-.264,1.135,1.135,0,0,0-.072-.415.8.8,0,0,0-.256-.319,1.079,1.079,0,0,0-.432-.2,2.469,2.469,0,0,0-.64-.075Zm1.311.544a.855.855,0,0,1,.527.128.487.487,0,0,1,.167.424.48.48,0,0,1-.184.415.967.967,0,0,1-.511.136H25.9V60.435Zm-.568,2.7v-1.12h.711a1.246,1.246,0,0,1,.319.04.544.544,0,0,1,.216.1.408.408,0,0,1,.12.176.487.487,0,0,1,0,.223.687.687,0,0,1,0,.223.456.456,0,0,1-.12.184.575.575,0,0,1-.208.128,1.032,1.032,0,0,1-.335.048Zm-2.933-2.693V59.91h-2.4v3.8h2.4V63.16H21.275v-1.11H22.6v-.544H21.275V60.451Zm-4.428,2.661v-3.2h-.7v3.8h2.237v-.582Zm-2.589-3.2h-.725l-1.494,3.8h.551a.2.2,0,0,0,.152-.056.247.247,0,0,0,.08-.1l.288-.8h1.6l.279.8a.39.39,0,0,0,.088.112.232.232,0,0,0,.152.048h.544Zm-.967,2.4.456-1.263a1.84,1.84,0,0,0,.072-.2,1.253,1.253,0,0,1,.072-.256.863.863,0,0,0,.072.256,1.84,1.84,0,0,0,.072.2l.463,1.263Zm-.927-2.4h-3v.575H12.19v3.2h.687v-3.2h1.149Zm-3.508,0h-.71v3.8h.711Zm-2.66,1.853v.4a.136.136,0,0,0,.04.1.152.152,0,0,0,.1.04h.479v.687a2.189,2.189,0,0,1-.319.12,1.394,1.394,0,0,1-.376.04,1.423,1.423,0,0,1-.527-.088,1.111,1.111,0,0,1-.408-.272,1.3,1.3,0,0,1-.272-.446,1.686,1.686,0,0,1-.12-.568,1.662,1.662,0,0,1,.088-.551,1.167,1.167,0,0,1,.248-.424,1.015,1.015,0,0,1,.384-.272,1.327,1.327,0,0,1,.511-.1,1.83,1.83,0,0,1,.312,0,1.415,1.415,0,0,1,.232.056l.2.088.167.1a.223.223,0,0,0,.167,0,.2.2,0,0,0,.128-.088l.2-.321a1.679,1.679,0,0,0-.264-.208,1.6,1.6,0,0,0-.312-.152,1.718,1.718,0,0,0-.376-.1,2.476,2.476,0,0,0-.432,0,2.254,2.254,0,0,0-.8.144,1.822,1.822,0,0,0-.613.4,1.784,1.784,0,0,0-.4.613,2.11,2.11,0,0,0-.136.8,2.03,2.03,0,0,0,.144.8,1.728,1.728,0,0,0,.408.613,1.79,1.79,0,0,0,.647.408,2.341,2.341,0,0,0,.8.144,2.453,2.453,0,0,0,.7-.1A2.35,2.35,0,0,0,9.1,63.34V61.778Zm-2.717-1.9H4.454v3.8h.711Zm-2.15,2.471a1.087,1.087,0,0,1-.232.424,1.174,1.174,0,0,1-.384.264,1.383,1.383,0,0,1-.5.088H1.161V60.451H1.9a1.231,1.231,0,0,1,.5.1.975.975,0,0,1,.384.264,1.055,1.055,0,0,1,.232.415,1.8,1.8,0,0,1,.088.568,1.75,1.75,0,0,1-.088.558m.669-1.326a1.662,1.662,0,0,0-.4-.6,1.766,1.766,0,0,0-.607-.39,2.221,2.221,0,0,0-.8-.136H.45v3.8H1.9a2.054,2.054,0,0,0,.8-.144,1.662,1.662,0,0,0,.592-.39,1.7,1.7,0,0,0,.39-.6,2.119,2.119,0,0,0,0-1.534" transform="translate(-0.322 -12.013)" fill="#283078" stroke="#707070" stroke-width="1"/>
          <path id="Pfad_945" data-name="Pfad 945" d="M47.361,54.358a.856.856,0,0,0-.12-.152l-.12-.1a1.6,1.6,0,0,0,.352-.16,1.12,1.12,0,0,0,.264-.248,1.175,1.175,0,0,0,.167-.312,1.3,1.3,0,0,0,.056-.36,1.175,1.175,0,0,0-.08-.424.9.9,0,0,0-.264-.343,1.215,1.215,0,0,0-.456-.223,2.286,2.286,0,0,0-.663-.08H45.34v3.844h.711V54.278h.3a.376.376,0,0,1,.152,0,.32.32,0,0,1,.1.1l.8,1.215a.279.279,0,0,0,.264.144h.64Zm-1.311-.592V52.5H46.5a.911.911,0,0,1,.583.16.527.527,0,0,1,.192.439.743.743,0,0,1-.032.3.607.607,0,0,1-.144.208.7.7,0,0,1-.24.136,1.167,1.167,0,0,1-.352.048Zm-2.237-2.524a.335.335,0,0,0-.072-.112.567.567,0,0,0-.112-.08.408.408,0,0,0-.136,0H43.35a.568.568,0,0,0-.112.08.534.534,0,0,0-.072.112.408.408,0,0,0,0,.136.376.376,0,0,0,0,.136.535.535,0,0,0,.072.112.335.335,0,0,0,.112.072.456.456,0,0,0,.144,0,.408.408,0,0,0,.136,0,.312.312,0,0,0,.184-.184.263.263,0,0,0,0-.136.279.279,0,0,0,0-.136m-1.159,0a.334.334,0,0,0-.072-.112.446.446,0,0,0-.12-.08.376.376,0,0,0-.136,0,.328.328,0,0,0-.128,0,.4.4,0,0,0-.112.08.568.568,0,0,0-.08.112.408.408,0,0,0,0,.136.376.376,0,0,0,0,.136.567.567,0,0,0,.08.112.272.272,0,0,0,.112.072.328.328,0,0,0,.128,0,.376.376,0,0,0,.136,0,.3.3,0,0,0,.12-.072.334.334,0,0,0,.072-.112.264.264,0,0,0,0-.136.279.279,0,0,0,0-.136m-.112,3.884a.8.8,0,0,1-.272-.192.935.935,0,0,1-.167-.3,1.223,1.223,0,0,1-.064-.39V51.96h-.7v2.246a1.758,1.758,0,0,0,.1.623,1.638,1.638,0,0,0,.319.5,1.326,1.326,0,0,0,.5.319,1.71,1.71,0,0,0,.655.12,1.751,1.751,0,0,0,.663-.12,1.391,1.391,0,0,0,.5-.319,1.487,1.487,0,0,0,.312-.5,1.758,1.758,0,0,0,.1-.623V51.96h-.7v2.246a1.45,1.45,0,0,1-.056.39.8.8,0,0,1-.446.5.887.887,0,0,1-.367.064.911.911,0,0,1-.367-.064m-1.79-2.605v-.558h-2.4v3.876h.7v-1.6h1.428v-.558h-1.43V52.52Zm-6.234,1.84a.8.8,0,0,0-.064-.12l-.128-.1a1.423,1.423,0,0,0,.352-.16.879.879,0,0,0,.264-.248,1.175,1.175,0,0,0,.167-.312,1.063,1.063,0,0,0,.056-.36,1.175,1.175,0,0,0-.088-.446.967.967,0,0,0-.256-.343,1.351,1.351,0,0,0-.456-.223,2.318,2.318,0,0,0-.663-.08H32.5v3.868h.71V54.278h.3a.423.423,0,0,1,.16,0,.408.408,0,0,1,.1.1l.8,1.215a.279.279,0,0,0,.264.144h.64Zm-1.314-.592V52.5h.446a.879.879,0,0,1,.575.16.527.527,0,0,1,.192.439.743.743,0,0,1-.048.272.607.607,0,0,1-.144.208.7.7,0,0,1-.24.136,1.167,1.167,0,0,1-.352.048ZM31.816,52.52v-.558h-2.4v3.844h2.4v-.569H30.131V54.118h1.335v-.544H30.131V52.52ZM27.9,51.962v2.66l-2-2.549a.176.176,0,0,0-.048-.056H25.3V55.8h.623v-2.4a2.4,2.4,0,0,0,0-.328l1.989,2.541a.288.288,0,0,0,.112.088.232.232,0,0,0,.136,0h.366V51.96Zm-3.141,0h-3v.583h1.143v3.2h.71v-3.2H24.76Zm-4,2.4a.8.8,0,0,0-.1-.128l-.128-.1a1.6,1.6,0,0,0,.36-.16.943.943,0,0,0,.256-.248,1.175,1.175,0,0,0,.167-.312,1.063,1.063,0,0,0,.056-.36,1.175,1.175,0,0,0-.088-.446.967.967,0,0,0-.256-.343,1.35,1.35,0,0,0-.456-.223,2.317,2.317,0,0,0-.663-.08H18.766v3.844h.711v-1.53h.3a.423.423,0,0,1,.16,0,.408.408,0,0,1,.1.1l.8,1.215a.279.279,0,0,0,.264.144h.64Zm-1.311-.592V52.5h.456a.927.927,0,0,1,.583.16.551.551,0,0,1,.184.439.743.743,0,0,1-.048.272.5.5,0,0,1-.136.208.735.735,0,0,1-.248.136,1.135,1.135,0,0,1-.352.048Zm-2.581-1.806h-.8l-1.462,3.844h.551a.232.232,0,0,0,.152-.048.328.328,0,0,0,.08-.112l.288-.8h1.6l.279.8a.39.39,0,0,0,.088.112.232.232,0,0,0,.152.048h.544Zm-.967,2.4L16.36,53.1a1.837,1.837,0,0,0,.072-.2,1.253,1.253,0,0,1,.072-.256.863.863,0,0,0,.072.256,1.84,1.84,0,0,0,.072.2l.463,1.263Zm-3.844-2.4v3.844h.7V54.421H13.3a2.261,2.261,0,0,0,.647-.088,1.383,1.383,0,0,0,.456-.256,1.071,1.071,0,0,0,.279-.4,1.287,1.287,0,0,0,.1-.5,1.247,1.247,0,0,0-.1-.5,1.031,1.031,0,0,0-.264-.384,1.415,1.415,0,0,0-.463-.248,2.286,2.286,0,0,0-.655-.088Zm.7,1.91V52.5H13.3a1.063,1.063,0,0,1,.335.048.592.592,0,0,1,.24.136.543.543,0,0,1,.144.208.863.863,0,0,1,0,.568.6.6,0,0,1-.144.223.7.7,0,0,1-.24.136,1.063,1.063,0,0,1-.335.048Zm-4.539.487a.8.8,0,0,0-.144-.152l-.128-.1a1.487,1.487,0,0,0,.36-.16,1.119,1.119,0,0,0,.264-.248,1.151,1.151,0,0,0,.16-.312,1.063,1.063,0,0,0,.056-.36,1.175,1.175,0,0,0-.08-.446.9.9,0,0,0-.264-.343,1.35,1.35,0,0,0-.456-.223,2.318,2.318,0,0,0-.663-.08H6.172v3.868h.7v-1.53h.3a.423.423,0,0,1,.16,0,.3.3,0,0,1,.1.1l.8,1.215a.279.279,0,0,0,.264.144h.639Zm-1.311-.592V52.5h.456a.911.911,0,0,1,.583.16.527.527,0,0,1,.192.439.743.743,0,0,1-.064.3.607.607,0,0,1-.144.208.664.664,0,0,1-.248.136,1.118,1.118,0,0,1-.343.048ZM4.6,51.96V53.6H2.776V51.96H2.064V55.8h.711V54.1H4.56v1.7h.709V51.96Zm-3.4,0H.45V55.8h.711Z" transform="translate(-0.322 -10.252)" fill="#283078" stroke="#707070" stroke-width="1"/>
        </g>
        <path id="Pfad_946" data-name="Pfad 946" d="M22.864,26.772a15.91,15.91,0,0,1-.583,1.742A11.06,11.06,0,0,1,13.89,35.34a11.74,11.74,0,0,1-7.544-.8A10.621,10.621,0,0,1,.3,26.772a13.1,13.1,0,0,1-.3-2.8V0H4.651V15.4a11.122,11.122,0,0,1,12.875-1.015,10.613,10.613,0,0,1,5.322,7.193H18.141a.264.264,0,0,1-.279-.184,6.561,6.561,0,0,0-6.554-4.165A6.729,6.729,0,0,0,4.8,23.256a6.841,6.841,0,0,0,2.063,6.178,6.457,6.457,0,0,0,4.7,1.734,6.769,6.769,0,0,0,4.691-1.806,6.5,6.5,0,0,0,1.6-2.4c.048-.112.072-.2.24-.2Z" fill="#281d19"/>
        <path id="Pfad_947" data-name="Pfad 947" d="M53.349,39H48.138V22.814a5.866,5.866,0,0,1,1.063-3.6,5.45,5.45,0,0,1,3.436-2.1,11.452,11.452,0,0,1,1.951-.208H58.4v4.875h-.264c-.9,0-1.8,0-2.7.056a2.989,2.989,0,0,0-.8.176A1.87,1.87,0,0,0,53.356,23.8V39Z" transform="translate(-9.666 -3.394)" fill="#281d19"/>
        <path id="Pfad_948" data-name="Pfad 948" d="M31.981,19.33h3.076v7.248H41.77v3H35.057v7.241H32.005V29.583H25.3v-3h6.681Z" transform="translate(-5.081 -3.882)" fill="#00587f"/>
      </g>
    </g>
    <rect id="Rechteck_12202" data-name="Rechteck 12202" width="78" height="16" transform="translate(1351 120)" fill="#fff"/>
  </g>
</svg>
